<?xml version="1.0" standalone="no"?>
<!DOCTYPE svg PUBLIC "-//W3C//DTD SVG 20010904//EN"
 "http://www.w3.org/TR/2001/REC-SVG-20010904/DTD/svg10.dtd">
<svg version="1.0" xmlns="http://www.w3.org/2000/svg"
 width="270.000000pt" height="270.000000pt" viewBox="0 0 270.000000 270.000000"
 preserveAspectRatio="xMidYMid meet">
<metadata>
Created by potrace 1.11, written by Peter Selinger 2001-2013
</metadata>
<g transform="translate(0.000000,270.000000) scale(0.100000,-0.100000)"
fill="#000000" stroke="none">
<path d="M395 2681 c-185 -53 -330 -202 -381 -393 -11 -44 -13 -202 -11 -953
1 -495 5 -909 9 -920 39 -124 73 -182 154 -262 69 -68 171 -123 262 -142 36
-8 333 -11 930 -11 954 0 931 -1 1045 56 129 66 225 176 273 314 l23 65 0 915
0 915 -23 66 c-13 37 -40 91 -58 121 -44 69 -142 157 -212 191 -117 58 -103
57 -1066 56 -804 -1 -890 -2 -945 -18z m1860 -272 c50 -19 135 -90 135 -114 0
-5 -234 -244 -520 -530 l-520 -520 -520 520 c-286 286 -520 524 -520 530 0 23
84 95 133 114 50 18 84 19 906 19 822 0 856 0 906 -19z m-1392 -2137 c-27 -2
-124 -2 -218 0 -194 4 -232 14 -298 84 -66 70 -75 110 -76 349 l-1 210 320
-320 320 -320 -47 -3z m1565 378 c-3 -166 -6 -189 -25 -225 -29 -55 -75 -99
-131 -127 -44 -22 -61 -23 -267 -26 l-220 -3 320 321 320 320 3 -37 c2 -21 2
-121 0 -223z"/>
</g>
</svg>
